<svg width="16" height="16" viewBox="0 0 16 16" fill="none" xmlns="http://www.w3.org/2000/svg">
<path d="M12.3583 9.90911C12.1611 10.1003 12.0704 10.3767 12.1154 10.6479L12.7925 14.395C12.8496 14.7126 12.7155 15.034 12.4497 15.2176C12.1893 15.408 11.8427 15.4308 11.5586 15.2785L8.18548 13.5192C8.06819 13.4567 7.93796 13.4232 7.80468 13.4194H7.59828C7.52669 13.4301 7.45662 13.4529 7.39265 13.488L4.01872 15.2557C3.85192 15.3394 3.66305 15.3691 3.47797 15.3394C3.0271 15.2541 2.72627 14.8246 2.80014 14.3714L3.47797 10.6243C3.52291 10.3509 3.43228 10.0729 3.23502 9.87865L0.48485 7.21299C0.254844 6.98983 0.174875 6.65472 0.279977 6.35236C0.382033 6.05076 0.642503 5.83065 0.957048 5.78115L4.74225 5.23202C5.03013 5.20232 5.28299 5.02715 5.41246 4.7682L7.08039 1.34854C7.11999 1.27238 7.17102 1.20231 7.23271 1.1429L7.30125 1.08959C7.33705 1.04998 7.37818 1.01723 7.42387 0.990577L7.50689 0.960113L7.63636 0.906799H7.957C8.24336 0.936502 8.49546 1.10787 8.62721 1.36377L10.3172 4.7682C10.4391 5.01725 10.6759 5.19013 10.9494 5.23202L14.7346 5.78115C15.0544 5.82685 15.3218 6.04771 15.4276 6.35236C15.5274 6.65777 15.4413 6.99288 15.2068 7.21299L12.3583 9.90911Z" fill="#F6B76F"/>
</svg>
